{"accessors":[{"bufferView":0,"byteOffset":0,"componentType":5123,"count":474,"max":[135],"min":[0],"type":"SCALAR"},{"bufferView":1,"byteOffset":0,"componentType":5126,"count":136,"max":[1,1,1],"min":[-1,-1,-1],"type":"VEC3"},{"bufferView":1,"byteOffset":1632,"componentType":5126,"count":136,"max":[0.004533459898084402,0.019062589854002,0.03637911006808281],"min":[-0.004533459898084402,-0.019062589854002,-0.03637911006808281],"type":"VEC3"},{"bufferView":0,"byteOffset":948,"componentType":5123,"count":36,"max":[23],"min":[0],"type":"SCALAR"},{"bufferView":1,"byteOffset":3264,"componentType":5126,"count":24,"max":[1,1,1],"min":[-1,-1,-1],"type":"VEC3"},{"bufferView":1,"byteOffset":3552,"componentType":5126,"count":24,"max":[0.04906470701098442,0.0017451299354434013,0.02789301984012127],"min":[-0.04906470701098442,-0.0017451299354434013,-0.02789301984012127],"type":"VEC3"},{"bufferView":0,"byteOffset":1020,"componentType":5123,"count":36,"max":[23],"min":[0],"type":"SCALAR"},{"bufferView":1,"byteOffset":3840,"componentType":5126,"count":24,"max":[1,1,1],"min":[-1,-1,-1],"type":"VEC3"},{"bufferView":1,"byteOffset":4128,"componentType":5126,"count":24,"max":[0.04906470701098442,0.0017451299354434013,0.02789301984012127],"min":[-0.04906470701098442,-0.0017451299354434013,-0.02789301984012127],"type":"VEC3"},{"bufferView":0,"byteOffset":1092,"componentType":5123,"count":474,"max":[135],"min":[0],"type":"SCALAR"},{"bufferView":1,"byteOffset":4416,"componentType":5126,"count":136,"max":[1,1,1],"min":[-1,-1,-1],"type":"VEC3"},{"bufferView":1,"byteOffset":6048,"componentType":5126,"count":136,"max":[0.004533459898084402,0.019062589854002,0.03637911006808281],"min":[-0.004533459898084402,-0.019062589854002,-0.03637911006808281],"type":"VEC3"}],"asset":{"generator":"COLLADA2GLTF","version":"2.0"},"bufferViews":[{"buffer":0,"byteLength":2040,"byteOffset":0,"target":34963},{"buffer":0,"byteLength":7680,"byteOffset":2040,"byteStride":12,"target":34962}],"buffers":[{"name":"output","byteLength":9720,"uri":"data:application/octet-stream;base64,"}],"materials":[{"emissiveFactor":[0,0,0],"name":"lambert4","pbrMetallicRoughness":{"baseColorFactor":[0.06535999476909637,0.08551999926567078,0.06616000086069107,1],"metallicFactor":0,"roughnessFactor":1},"alphaMode":"OPAQUE","doubleSided":false},{"emissiveFactor":[0,0,0],"name":"lambert2","pbrMetallicRoughness":{"baseColorFactor":[0.07663999497890472,0.13359999656677246,0.041919998824596405,1],"metallicFactor":0,"roughnessFactor":1},"alphaMode":"OPAQUE","doubleSided":false},{"emissiveFactor":[0,0,0],"name":"lambert3","pbrMetallicRoughness":{"baseColorFactor":[0.3199999928474426,0.4320000112056732,0.042319998145103455,1],"metallicFactor":0,"roughnessFactor":1},"alphaMode":"OPAQUE","doubleSided":false},{"emissiveFactor":[0,0,0],"name":"lambert4","pbrMetallicRoughness":{"baseColorFactor":[0.06535999476909637,0.08551999926567078,0.06616000086069107,1],"metallicFactor":0,"roughnessFactor":1},"alphaMode":"OPAQUE","doubleSided":false}],"meshes":[{"name":"pCube5Mesh","primitives":[{"attributes":{"NORMAL":1,"POSITION":2},"indices":0,"material":0,"mode":4}]},{"name":"pCube4Mesh","primitives":[{"attributes":{"NORMAL":4,"POSITION":5},"indices":3,"material":1,"mode":4}]},{"name":"pCube3Mesh","primitives":[{"attributes":{"NORMAL":7,"POSITION":8},"indices":6,"material":2,"mode":4}]},{"name":"pCube2Mesh","primitives":[{"attributes":{"NORMAL":10,"POSITION":11},"indices":9,"material":3,"mode":4}]}],"nodes":[{"children":[4,3,2,1],"name":"Y_UP"},{"matrix":[1,0,0,0,0,1.7664730548858643,0,0,0,0,1,0,-0.05219433829188347,0.03329500928521156,0,1],"mesh":0,"name":"pCube5"},{"matrix":[1,0,0,0,0,0.17364799976348877,0.9848079681396484,0,0,-0.8863269686698914,0.15628300607204437,0,0,0.07567897439002991,-0.02882196754217148,1],"mesh":1,"name":"pCube4"},{"matrix":[1,0,0,0,0,1,0,0,0,0,1,0,0,0.04051323980093002,0,1],"mesh":2,"name":"pCube3"},{"matrix":[1,0,0,0,0,1.7664730548858643,0,0,0,0,1,0,0.05291042849421501,0.03329500928521156,0,1],"mesh":3,"name":"pCube2"}],"scene":0,"scenes":[{"nodes":[0]}]}
