{"accessors":[{"bufferView":0,"byteOffset":0,"componentType":5123,"count":348,"max":[121],"min":[0],"type":"SCALAR"},{"bufferView":1,"byteOffset":0,"componentType":5126,"count":122,"max":[1,1,1],"min":[-1,-1,-1],"type":"VEC3"},{"bufferView":1,"byteOffset":1464,"componentType":5126,"count":122,"max":[0.009183740243315697,0.0020855399779975414,0.009183740243315697],"min":[-0.009183750487864017,-0.0032106200233101845,-0.009183750487864017],"type":"VEC3"},{"bufferView":0,"byteOffset":696,"componentType":5123,"count":12,"max":[7],"min":[0],"type":"SCALAR"},{"bufferView":1,"byteOffset":2928,"componentType":5126,"count":8,"max":[0,-0.9986180067062378,0.04998999834060669],"min":[-0.030896000564098358,-1,-0.04998999834060669],"type":"VEC3"},{"bufferView":1,"byteOffset":3024,"componentType":5126,"count":8,"max":[-0.0014189699431881309,-0.0020855399779975414,0.008734259754419327],"min":[-0.005398069974035025,-0.0020855399779975414,-0.008734259754419327],"type":"VEC3"},{"bufferView":0,"byteOffset":720,"componentType":5123,"count":177,"max":[60],"min":[0],"type":"SCALAR"},{"bufferView":1,"byteOffset":3120,"componentType":5126,"count":61,"max":[0.4413430094718933,0.9888529777526855,0.4413430094718933],"min":[-0.4413430094718933,-0.9987300038337708,-0.4413430094718933],"type":"VEC3"},{"bufferView":1,"byteOffset":3852,"componentType":5126,"count":61,"max":[0.004948349669575691,0.0020855399779975414,0.004948349669575691],"min":[-0.004948349669575691,-0.0032106200233101845,-0.004948349669575691],"type":"VEC3"},{"bufferView":0,"byteOffset":1074,"componentType":5123,"count":63,"max":[23],"min":[0],"type":"SCALAR"},{"bufferView":1,"byteOffset":4584,"componentType":5126,"count":24,"max":[0.4413430094718933,1,0.4413430094718933],"min":[-0.4413430094718933,-0.9987300038337708,-0.4413430094718933],"type":"VEC3"},{"bufferView":1,"byteOffset":4872,"componentType":5126,"count":24,"max":[0.004591870121657848,0.0009604699444025755,0.004591870121657848],"min":[-0.004591870121657848,-0.0032106200233101845,-0.004591870121657848],"type":"VEC3"},{"bufferView":0,"byteOffset":1200,"componentType":5123,"count":348,"max":[121],"min":[0],"type":"SCALAR"},{"bufferView":1,"byteOffset":5160,"componentType":5126,"count":122,"max":[1,1,1],"min":[-1,-1,-1],"type":"VEC3"},{"bufferView":1,"byteOffset":6624,"componentType":5126,"count":122,"max":[0.009183740243315697,0.0020855399779975414,0.009183740243315697],"min":[-0.009183750487864017,-0.0032106200233101845,-0.009183750487864017],"type":"VEC3"},{"bufferView":0,"byteOffset":1896,"componentType":5123,"count":6,"max":[3],"min":[0],"type":"SCALAR"},{"bufferView":1,"byteOffset":8088,"componentType":5126,"count":4,"max":[0,-0.9986180067062378,0],"min":[-0.030896000564098358,-1,-0.04998999834060669],"type":"VEC3"},{"bufferView":1,"byteOffset":8136,"componentType":5126,"count":4,"max":[-0.0014189699431881309,-0.0020855399779975414,-0.0037148999981582165],"min":[-0.005398069974035025,-0.0020855399779975414,-0.008734259754419327],"type":"VEC3"},{"bufferView":0,"byteOffset":1908,"componentType":5123,"count":6,"max":[3],"min":[0],"type":"SCALAR"},{"bufferView":1,"byteOffset":8184,"componentType":5126,"count":4,"max":[0,-0.9986180067062378,0.04998999834060669],"min":[-0.030896000564098358,-1,0],"type":"VEC3"},{"bufferView":1,"byteOffset":8232,"componentType":5126,"count":4,"max":[-0.0014189699431881309,-0.0020855399779975414,0.008734259754419327],"min":[-0.005398069974035025,-0.0020855399779975414,0.0037148999981582165],"type":"VEC3"},{"bufferView":0,"byteOffset":1920,"componentType":5123,"count":177,"max":[60],"min":[0],"type":"SCALAR"},{"bufferView":1,"byteOffset":8280,"componentType":5126,"count":61,"max":[0.4413430094718933,0.9888529777526855,0.4413430094718933],"min":[-0.4413430094718933,-0.9987300038337708,-0.4413430094718933],"type":"VEC3"},{"bufferView":1,"byteOffset":9012,"componentType":5126,"count":61,"max":[0.004948349669575691,0.0020855399779975414,0.004948349669575691],"min":[-0.004948349669575691,-0.0032106200233101845,-0.004948349669575691],"type":"VEC3"},{"bufferView":0,"byteOffset":2274,"componentType":5123,"count":63,"max":[23],"min":[0],"type":"SCALAR"},{"bufferView":1,"byteOffset":9744,"componentType":5126,"count":24,"max":[0.4413430094718933,1,0.4413430094718933],"min":[-0.4413430094718933,-0.9987300038337708,-0.4413430094718933],"type":"VEC3"},{"bufferView":1,"byteOffset":10032,"componentType":5126,"count":24,"max":[0.004591870121657848,0.0009604699444025755,0.004591870121657848],"min":[-0.004591870121657848,-0.0032106200233101845,-0.004591870121657848],"type":"VEC3"},{"bufferView":0,"byteOffset":2400,"componentType":5123,"count":348,"max":[121],"min":[0],"type":"SCALAR"},{"bufferView":1,"byteOffset":10320,"componentType":5126,"count":122,"max":[1,1,1],"min":[-1,-1,-1],"type":"VEC3"},{"bufferView":1,"byteOffset":11784,"componentType":5126,"count":122,"max":[0.009183740243315697,0.0020855399779975414,0.009183740243315697],"min":[-0.009183750487864017,-0.0032106200233101845,-0.009183750487864017],"type":"VEC3"},{"bufferView":0,"byteOffset":3096,"componentType":5123,"count":189,"max":[64],"min":[0],"type":"SCALAR"},{"bufferView":1,"byteOffset":13248,"componentType":5126,"count":65,"max":[0.4413430094718933,0.9888529777526855,0.4413430094718933],"min":[-0.4413430094718933,-1,-0.4413430094718933],"type":"VEC3"},{"bufferView":1,"byteOffset":14028,"componentType":5126,"count":65,"max":[0.004948349669575691,0.0020855399779975414,0.008734259754419327],"min":[-0.005398069974035025,-0.0032106200233101845,-0.008734259754419327],"type":"VEC3"},{"bufferView":0,"byteOffset":3474,"componentType":5123,"count":63,"max":[23],"min":[0],"type":"SCALAR"},{"bufferView":1,"byteOffset":14808,"componentType":5126,"count":24,"max":[0.4413430094718933,1,0.4413430094718933],"min":[-0.4413430094718933,-0.9987300038337708,-0.4413430094718933],"type":"VEC3"},{"bufferView":1,"byteOffset":15096,"componentType":5126,"count":24,"max":[0.004591870121657848,0.0009604699444025755,0.004591870121657848],"min":[-0.004591870121657848,-0.0032106200233101845,-0.004591870121657848],"type":"VEC3"},{"bufferView":0,"byteOffset":3600,"componentType":5123,"count":348,"max":[121],"min":[0],"type":"SCALAR"},{"bufferView":1,"byteOffset":15384,"componentType":5126,"count":122,"max":[1,1,1],"min":[-1,-1,-1],"type":"VEC3"},{"bufferView":1,"byteOffset":16848,"componentType":5126,"count":122,"max":[0.009183740243315697,0.0020855399779975414,0.009183740243315697],"min":[-0.009183750487864017,-0.0032106200233101845,-0.009183750487864017],"type":"VEC3"},{"bufferView":0,"byteOffset":4296,"componentType":5123,"count":189,"max":[64],"min":[0],"type":"SCALAR"},{"bufferView":1,"byteOffset":18312,"componentType":5126,"count":65,"max":[0.4413430094718933,0.9888529777526855,0.4413430094718933],"min":[-0.4413430094718933,-1,-0.4413430094718933],"type":"VEC3"},{"bufferView":1,"byteOffset":19092,"componentType":5126,"count":65,"max":[0.004948349669575691,0.0020855399779975414,0.008734259754419327],"min":[-0.005398069974035025,-0.0032106200233101845,-0.008734259754419327],"type":"VEC3"},{"bufferView":0,"byteOffset":4674,"componentType":5123,"count":63,"max":[23],"min":[0],"type":"SCALAR"},{"bufferView":1,"byteOffset":19872,"componentType":5126,"count":24,"max":[0.4413430094718933,1,0.4413430094718933],"min":[-0.4413430094718933,-0.9987300038337708,-0.4413430094718933],"type":"VEC3"},{"bufferView":1,"byteOffset":20160,"componentType":5126,"count":24,"max":[0.004591870121657848,0.0009604699444025755,0.004591870121657848],"min":[-0.004591870121657848,-0.0032106200233101845,-0.004591870121657848],"type":"VEC3"},{"bufferView":0,"byteOffset":4800,"componentType":5123,"count":5016,"max":[1087],"min":[0],"type":"SCALAR"},{"bufferView":1,"byteOffset":20448,"componentType":5126,"count":1088,"max":[1,0.9999769926071167,1],"min":[-1,-1,-1],"type":"VEC3"},{"bufferView":1,"byteOffset":33504,"componentType":5126,"count":1088,"max":[0.02896086871623993,0.029223280027508736,0.05674579367041588],"min":[-0.02896086871623993,-0.02335897833108902,-0.07813531905412674],"type":"VEC3"},{"bufferView":0,"byteOffset":14832,"componentType":5123,"count":24,"max":[9],"min":[0],"type":"SCALAR"},{"bufferView":1,"byteOffset":46560,"componentType":5126,"count":10,"max":[0,0,1],"min":[0,0,1],"type":"VEC3"},{"bufferView":1,"byteOffset":46680,"componentType":5126,"count":10,"max":[0.013606619089841843,0.0159967802464962,0.05674579367041588],"min":[-0.014430848881602287,-0.0026197200641036034,0.05674579367041588],"type":"VEC3"},{"bufferView":0,"byteOffset":14880,"componentType":5123,"count":48,"max":[31],"min":[0],"type":"SCALAR"},{"bufferView":1,"byteOffset":46800,"componentType":5126,"count":32,"max":[0.9895179867744446,0.21503899991512299,0.27175599336624146],"min":[-0.9691659808158875,-0.21915599703788757,-0.2606689929962158],"type":"VEC3"},{"bufferView":1,"byteOffset":47184,"componentType":5126,"count":32,"max":[0.027163710445165634,0.013339419849216938,0.03852257877588272],"min":[-0.025527318939566612,-0.003610519925132394,-0.047189150005578995],"type":"VEC3"},{"bufferView":0,"byteOffset":14976,"componentType":5123,"count":36,"max":[13],"min":[0],"type":"SCALAR"},{"bufferView":1,"byteOffset":47568,"componentType":5126,"count":14,"max":[0.30953601002693176,0.7042149901390076,-0.7070770263671875],"min":[-0.2570419907569885,0.17395399510860443,-0.9803619980812073],"type":"VEC3"},{"bufferView":1,"byteOffset":47736,"componentType":5126,"count":14,"max":[0.022155608981847763,0.0159967802464962,-0.053292416036129],"min":[-0.02106091007590294,-0.0031086099334061146,-0.061500489711761475],"type":"VEC3"},{"bufferView":0,"byteOffset":15048,"componentType":5123,"count":24,"max":[11],"min":[0],"type":"SCALAR"},{"bufferView":1,"byteOffset":47904,"componentType":5126,"count":12,"max":[0.6285510063171387,0.00005500000042957254,-0.6899740099906921],"min":[-0.7014780044555664,-0.4484429955482483,-0.8832870125770569],"type":"VEC3"},{"bufferView":1,"byteOffset":48048,"componentType":5126,"count":12,"max":[0.022155608981847763,-0.01302368938922882,-0.06879334151744843],"min":[-0.02106091007590294,-0.020578889176249504,-0.07680422812700272],"type":"VEC3"},{"bufferView":0,"byteOffset":15096,"componentType":5123,"count":24,"max":[11],"min":[0],"type":"SCALAR"},{"bufferView":1,"byteOffset":48192,"componentType":5126,"count":12,"max":[0,0,1],"min":[0,0,1],"type":"VEC3"},{"bufferView":1,"byteOffset":48336,"componentType":5126,"count":12,"max":[0.022155608981847763,-0.01302368938922882,0.05674579367041588],"min":[-0.02106091007590294,-0.020578889176249504,0.05674579367041588],"type":"VEC3"},{"bufferView":0,"byteOffset":15144,"componentType":5123,"count":348,"max":[123],"min":[0],"type":"SCALAR"},{"bufferView":1,"byteOffset":48480,"componentType":5126,"count":124,"max":[1,0.5178210139274597,1],"min":[-1,0,-1],"type":"VEC3"},{"bufferView":1,"byteOffset":49968,"componentType":5126,"count":124,"max":[0.02896086871623993,-0.008040039800107479,0.05674579367041588],"min":[-0.02896086871623993,-0.013557979837059975,-0.07813531905412674],"type":"VEC3"}],"asset":{"generator":"COLLADA2GLTF","version":"2.0"},"bufferViews":[{"buffer":0,"byteLength":15840,"byteOffset":0,"target":34963},{"buffer":0,"byteLength":51456,"byteOffset":15840,"byteStride":12,"target":34962}],"buffers":[{"name":"output","byteLength":67296,"uri":"data:application/octet-stream;base64,"}],"materials":[{"emissiveFactor":[0,0,0],"name":"lambert12","pbrMetallicRoughness":{"baseColorFactor":[0.01727999933063984,0.01711999997496605,0.012159999459981918,1],"metallicFactor":0,"roughnessFactor":1},"alphaMode":"OPAQUE","doubleSided":false},{"emissiveFactor":[0,0,0],"name":"lambert13","pbrMetallicRoughness":{"baseColorFactor":[0.01727999933063984,0.01711999997496605,0.012159999459981918,1],"metallicFactor":0,"roughnessFactor":1},"alphaMode":"OPAQUE","doubleSided":false},{"emissiveFactor":[0,0,0],"name":"lambert1","pbrMetallicRoughness":{"baseColorFactor":[0.4000000059604645,0.4000000059604645,0.4000000059604645,1],"metallicFactor":0,"roughnessFactor":1},"alphaMode":"OPAQUE","doubleSided":false},{"emissiveFactor":[0,0,0],"name":"lambert11","pbrMetallicRoughness":{"baseColorFactor":[0.5680800080299377,0.5654399991035461,0.49007999897003174,1],"metallicFactor":0,"roughnessFactor":1},"alphaMode":"OPAQUE","doubleSided":false},{"emissiveFactor":[0,0,0],"name":"lambert12","pbrMetallicRoughness":{"baseColorFactor":[0.01727999933063984,0.01711999997496605,0.012159999459981918,1],"metallicFactor":0,"roughnessFactor":1},"alphaMode":"OPAQUE","doubleSided":false},{"emissiveFactor":[0,0,0],"name":"lambert15","pbrMetallicRoughness":{"baseColorFactor":[0.01727999933063984,0.01711999997496605,0.012159999459981918,1],"metallicFactor":0,"roughnessFactor":1},"alphaMode":"OPAQUE","doubleSided":false},{"emissiveFactor":[0,0,0],"name":"lambert14","pbrMetallicRoughness":{"baseColorFactor":[0.01727999933063984,0.01711999997496605,0.012159999459981918,1],"metallicFactor":0,"roughnessFactor":1},"alphaMode":"OPAQUE","doubleSided":false},{"emissiveFactor":[0,0,0],"name":"lambert1","pbrMetallicRoughness":{"baseColorFactor":[0.4000000059604645,0.4000000059604645,0.4000000059604645,1],"metallicFactor":0,"roughnessFactor":1},"alphaMode":"OPAQUE","doubleSided":false},{"emissiveFactor":[0,0,0],"name":"lambert11","pbrMetallicRoughness":{"baseColorFactor":[0.5680800080299377,0.5654399991035461,0.49007999897003174,1],"metallicFactor":0,"roughnessFactor":1},"alphaMode":"OPAQUE","doubleSided":false},{"emissiveFactor":[0,0,0],"name":"lambert12","pbrMetallicRoughness":{"baseColorFactor":[0.01727999933063984,0.01711999997496605,0.012159999459981918,1],"metallicFactor":0,"roughnessFactor":1},"alphaMode":"OPAQUE","doubleSided":false},{"emissiveFactor":[0,0,0],"name":"lambert1","pbrMetallicRoughness":{"baseColorFactor":[0.4000000059604645,0.4000000059604645,0.4000000059604645,1],"metallicFactor":0,"roughnessFactor":1},"alphaMode":"OPAQUE","doubleSided":false},{"emissiveFactor":[0,0,0],"name":"lambert11","pbrMetallicRoughness":{"baseColorFactor":[0.5680800080299377,0.5654399991035461,0.49007999897003174,1],"metallicFactor":0,"roughnessFactor":1},"alphaMode":"OPAQUE","doubleSided":false},{"emissiveFactor":[0,0,0],"name":"lambert12","pbrMetallicRoughness":{"baseColorFactor":[0.01727999933063984,0.01711999997496605,0.012159999459981918,1],"metallicFactor":0,"roughnessFactor":1},"alphaMode":"OPAQUE","doubleSided":false},{"emissiveFactor":[0,0,0],"name":"lambert1","pbrMetallicRoughness":{"baseColorFactor":[0.4000000059604645,0.4000000059604645,0.4000000059604645,1],"metallicFactor":0,"roughnessFactor":1},"alphaMode":"OPAQUE","doubleSided":false},{"emissiveFactor":[0,0,0],"name":"lambert11","pbrMetallicRoughness":{"baseColorFactor":[0.5680800080299377,0.5654399991035461,0.49007999897003174,1],"metallicFactor":0,"roughnessFactor":1},"alphaMode":"OPAQUE","doubleSided":false},{"emissiveFactor":[0,0,0],"name":"lambert3","pbrMetallicRoughness":{"baseColorFactor":[0.800000011920929,0.6933599710464478,0.047040000557899475,1],"metallicFactor":0,"roughnessFactor":1},"alphaMode":"OPAQUE","doubleSided":false},{"emissiveFactor":[0,0,0],"name":"lambert7","pbrMetallicRoughness":{"baseColorFactor":[0.2635999917984009,0.7470399737358093,0.7177599668502808,1],"metallicFactor":0,"roughnessFactor":1},"alphaMode":"OPAQUE","doubleSided":false},{"emissiveFactor":[0,0,0],"name":"lambert4","pbrMetallicRoughness":{"baseColorFactor":[0.2635999917984009,0.7470399737358093,0.7177599668502808,1],"metallicFactor":0,"roughnessFactor":1},"alphaMode":"OPAQUE","doubleSided":false},{"emissiveFactor":[0,0,0],"name":"lambert5","pbrMetallicRoughness":{"baseColorFactor":[0.2635999917984009,0.7470399737358093,0.7177599668502808,1],"metallicFactor":0,"roughnessFactor":1},"alphaMode":"OPAQUE","doubleSided":false},{"emissiveFactor":[0,0,0],"name":"lambert9","pbrMetallicRoughness":{"baseColorFactor":[0.800000011920929,0.794160008430481,0.6274399757385254,1],"metallicFactor":0,"roughnessFactor":1},"alphaMode":"OPAQUE","doubleSided":false},{"emissiveFactor":[0,0,0],"name":"lambert8","pbrMetallicRoughness":{"baseColorFactor":[0.306799978017807,0,0.01592000015079975,1],"metallicFactor":0,"roughnessFactor":1},"alphaMode":"OPAQUE","doubleSided":false},{"emissiveFactor":[0,0,0],"name":"lambert6","pbrMetallicRoughness":{"baseColorFactor":[0.02871999889612198,0.03271999955177307,0.041839998215436935,1],"metallicFactor":0,"roughnessFactor":1},"alphaMode":"OPAQUE","doubleSided":false}],"meshes":[{"name":"pCylinder4Mesh","primitives":[{"attributes":{"NORMAL":1,"POSITION":2},"indices":0,"material":0,"mode":4},{"attributes":{"NORMAL":4,"POSITION":5},"indices":3,"material":1,"mode":4},{"attributes":{"NORMAL":7,"POSITION":8},"indices":6,"material":2,"mode":4},{"attributes":{"NORMAL":10,"POSITION":11},"indices":9,"material":3,"mode":4}]},{"name":"pCylinder3Mesh","primitives":[{"attributes":{"NORMAL":13,"POSITION":14},"indices":12,"material":4,"mode":4},{"attributes":{"NORMAL":16,"POSITION":17},"indices":15,"material":5,"mode":4},{"attributes":{"NORMAL":19,"POSITION":20},"indices":18,"material":6,"mode":4},{"attributes":{"NORMAL":22,"POSITION":23},"indices":21,"material":7,"mode":4},{"attributes":{"NORMAL":25,"POSITION":26},"indices":24,"material":8,"mode":4}]},{"name":"pCylinder2Mesh","primitives":[{"attributes":{"NORMAL":28,"POSITION":29},"indices":27,"material":9,"mode":4},{"attributes":{"NORMAL":31,"POSITION":32},"indices":30,"material":10,"mode":4},{"attributes":{"NORMAL":34,"POSITION":35},"indices":33,"material":11,"mode":4}]},{"name":"pCylinder1Mesh","primitives":[{"attributes":{"NORMAL":37,"POSITION":38},"indices":36,"material":12,"mode":4},{"attributes":{"NORMAL":40,"POSITION":41},"indices":39,"material":13,"mode":4},{"attributes":{"NORMAL":43,"POSITION":44},"indices":42,"material":14,"mode":4}]},{"name":"pCube1Mesh","primitives":[{"attributes":{"NORMAL":46,"POSITION":47},"indices":45,"material":15,"mode":4},{"attributes":{"NORMAL":49,"POSITION":50},"indices":48,"material":16,"mode":4},{"attributes":{"NORMAL":52,"POSITION":53},"indices":51,"material":17,"mode":4},{"attributes":{"NORMAL":55,"POSITION":56},"indices":54,"material":18,"mode":4},{"attributes":{"NORMAL":58,"POSITION":59},"indices":57,"material":19,"mode":4},{"attributes":{"NORMAL":61,"POSITION":62},"indices":60,"material":20,"mode":4},{"attributes":{"NORMAL":64,"POSITION":65},"indices":63,"material":21,"mode":4}]}],"nodes":[{"children":[6,5,4,1],"name":"Y_UP"},{"children":[3,2],"matrix":[-1,0,0,0,0,-1,0,0,0,0,1,0,0,0,0,1],"name":"group1"},{"matrix":[0,-1,0,0,1,0,0,0,0,0,1,0,0.030141780152916908,-0.008144109509885311,-0.04249954968690872,1],"mesh":0,"name":"pCylinder4"},{"matrix":[0,-1,0,0,1,0,0,0,0,0,1,0,0.030141780152916908,-0.008144109509885311,0.03234456107020378,1],"mesh":1,"name":"pCylinder3"},{"matrix":[0,-1,0,0,1,0,0,0,0,0,1,0,0.030141780152916908,0.007071289699524641,0.03234456107020378,1],"mesh":2,"name":"pCylinder2"},{"matrix":[0,-1,0,0,1,0,0,0,0,0,1,0,0.030141780152916908,0.007071289699524641,-0.04249954968690872,1],"mesh":3,"name":"pCylinder1"},{"matrix":[1,0,0,0,0,1,0,0,0,0,1,0,0.000042229996324749663,0.030581040307879448,-0.0016228798776865005,1],"mesh":4,"name":"pCube1"}],"scene":0,"scenes":[{"nodes":[0]}]}
