{
  "asset": {
    "version": "2.0",
    "generator": "THREE.GLTFExporter"
  },
  "scenes": [
    {
      "nodes": [
        13
      ],
      "name": "AuxScene"
    }
  ],
  "scene": 0,
  "nodes": [
    {
      "matrix": [
        0.4050559578976116,
        0.9141479997064281,
        0.016228210346251257,
        0,
        -0.8261510002935717,
        0.3735530629589108,
        -0.42182090895147495,
        0,
        -0.39166878965375046,
        0.15745409104852448,
        0.9065340726559202,
        0,
        2.001973,
        0,
        -2.933394,
        1
      ],
      "name": "group1"
    },
    {
      "matrix": [
        1,
        0,
        0,
        0,
        0,
        0.08929199999999994,
        -0.996005,
        0,
        0,
        0.996005,
        0.08929199999999994,
        0,
        0,
        -1.2345,
        0.750597,
        1
      ],
      "name": "group2"
    },
    {
      "matrix": [
        0.49462304566514165,
        0.12226029891392895,
        -0.8604648526503436,
        0,
        -0.8261507010859458,
        0.3735531516280735,
        -0.42182125233875056,
        0,
        0.2698571473496009,
        0.9195157476614503,
        0.28577333820369144,
        0,
        2.001973,
        0.504255,
        -3.694192,
        1
      ],
      "name": "group3"
    },
    {
      "matrix": [
        -0.3548970314807354,
        -0.5135569173877095,
        -0.7812221297600733,
        0,
        -0.9349030826122854,
        0.1969155567168858,
        0.2952641748118343,
        0,
        0.002199870239976871,
        0.8351548251882221,
        -0.5500104118022482,
        0,
        2.870775,
        -2.010785,
        -1.650448,
        1
      ],
      "name": "group4"
    },
    {
      "matrix": [
        0.4050565632065019,
        0.9141476218824198,
        0.016228356772529574,
        0,
        -0.4886933781176699,
        0.23147209455299916,
        -0.8411895827269579,
        0,
        -0.7727276432275061,
        0.3327984172729016,
        0.540497093473154,
        0,
        2.001973,
        1.781082,
        -5.851576,
        1
      ],
      "name": "group5"
    },
    {
      "matrix": [
        1,
        0,
        0,
        0,
        0,
        -0.4571239999999997,
        -0.889403,
        0,
        0,
        0.889403,
        -0.4571239999999997,
        0,
        0,
        0.546582,
        -2.167585,
        1
      ],
      "name": "group6"
    },
    {
      "name": "group7"
    },
    {
      "matrix": [
        1,
        0,
        0,
        0,
        0,
        -0.996439,
        -0.08432,
        0,
        0,
        0.08432,
        -0.996439,
        0,
        0,
        7.167084,
        -3.347542,
        1
      ],
      "name": "group8"
    },
    {
      "name": "group9"
    },
    {
      "matrix": [
        0.1342950000000002,
        0,
        -0.990941,
        0,
        0,
        1,
        0,
        0,
        0.990941,
        0,
        0.1342950000000002,
        0,
        1.960109,
        0,
        -1.297331,
        1
      ],
      "name": "group10"
    },
    {
      "matrix": [
        0.8046799989354798,
        -0.5253367603188385,
        -0.27660735023586297,
        0,
        -0.25059476031888206,
        0.12183389855498497,
        -0.9603949354702829,
        0,
        0.2470638392314431,
        0.38656102962104244,
        -0.015427671941875377,
        0,
        -0.066287,
        4.481135,
        -4.693214,
        1
      ],
      "name": "pasted__pDisc75",
      "mesh": 0
    },
    {
      "matrix": [
        0.1342950000000002,
        0,
        -0.990941,
        0,
        0,
        1,
        0,
        0,
        0.990941,
        0,
        0.1342950000000002,
        0,
        1.960109,
        0,
        -1.297331,
        1
      ],
      "name": "pasted__group10",
      "children": [
        10
      ]
    },
    {
      "name": "group",
      "children": [
        11
      ]
    },
    {
      "matrix": [
        0.01,
        0,
        0,
        0,
        0,
        0.01,
        0,
        0,
        0,
        0,
        0.01,
        0,
        0,
        0,
        0,
        1
      ],
      "name": "Leaf",
      "children": [
        0,
        1,
        2,
        3,
        4,
        5,
        6,
        7,
        8,
        9,
        12
      ]
    }
  ],
  "bufferViews": [
    {
      "buffer": 0,
      "byteOffset": 0,
      "byteLength": 3456,
      "target": 34962,
      "byteStride": 12
    },
    {
      "buffer": 0,
      "byteOffset": 3456,
      "byteLength": 3456,
      "target": 34962,
      "byteStride": 12
    },
    {
      "buffer": 0,
      "byteOffset": 6912,
      "byteLength": 2304,
      "target": 34962,
      "byteStride": 8
    },
    {
      "buffer": 0,
      "byteOffset": 9216,
      "byteLength": 576,
      "target": 34963
    }
  ],
  "buffers": [
    {
      "byteLength": 9792,
      "uri": "data:application/octet-stream;base64,"
    }
  ],
  "accessors": [
    {
      "bufferView": 0,
      "componentType": 5126,
      "count": 288,
      "max": [
        1,
        0.22110900282859802,
        1
      ],
      "min": [
        -1,
        0,
        -1
      ],
      "type": "VEC3"
    },
    {
      "bufferView": 1,
      "componentType": 5126,
      "count": 288,
      "max": [
        0.30772000551223755,
        1,
        0.21633699536323547
      ],
      "min": [
        -0.4525890052318573,
        0.8525750041007996,
        -0.3211199939250946
      ],
      "type": "VEC3"
    },
    {
      "bufferView": 2,
      "componentType": 5126,
      "count": 288,
      "max": [
        1,
        1
      ],
      "min": [
        0,
        0
      ],
      "type": "VEC2"
    },
    {
      "bufferView": 3,
      "componentType": 5123,
      "count": 288,
      "max": [
        287
      ],
      "min": [
        0
      ],
      "type": "SCALAR"
    }
  ],
  "materials": [
    {
      "pbrMetallicRoughness": {
        "baseColorFactor": [
          0.60832,
          0.44096,
          0,
          1
        ],
        "metallicFactor": 0.5,
        "roughnessFactor": 0.5
      },
      "name": "pasted__lambert12"
    }
  ],
  "meshes": [
    {
      "primitives": [
        {
          "mode": 4,
          "attributes": {
            "POSITION": 0,
            "NORMAL": 1,
            "TEXCOORD_0": 2
          },
          "indices": 3,
          "material": 0
        }
      ]
    }
  ]
}