{"accessors":[{"bufferView":0,"byteOffset":0,"componentType":5123,"count":2280,"max":[438],"min":[0],"type":"SCALAR"},{"bufferView":1,"byteOffset":0,"componentType":5126,"count":439,"max":[1,1,1],"min":[-1,-1,-1],"type":"VEC3"},{"bufferView":1,"byteOffset":5268,"componentType":5126,"count":439,"max":[0.0068419198505580425,0.0068419198505580425,0.0068419198505580425],"min":[-0.0068419198505580425,-0.0068419198505580425,-0.0068419198505580425],"type":"VEC3"},{"bufferView":0,"byteOffset":4560,"componentType":5123,"count":36,"max":[23],"min":[0],"type":"SCALAR"},{"bufferView":1,"byteOffset":10536,"componentType":5126,"count":24,"max":[0.9280610084533691,1,0.9167320132255554],"min":[-0.9280610084533691,-1,-0.9167320132255554],"type":"VEC3"},{"bufferView":1,"byteOffset":10824,"componentType":5126,"count":24,"max":[0.0186419989913702,-0.015319439582526684,0.02024431899189949],"min":[-0.018642008304595947,-0.027961038053035736,-0.02024431899189949],"type":"VEC3"},{"bufferView":0,"byteOffset":4632,"componentType":5123,"count":36,"max":[23],"min":[0],"type":"SCALAR"},{"bufferView":1,"byteOffset":11112,"componentType":5126,"count":24,"max":[0.9879859685897827,1,0.9858769774436951],"min":[-0.9879859685897827,-1,-0.9858769774436951],"type":"VEC3"},{"bufferView":1,"byteOffset":11400,"componentType":5126,"count":24,"max":[0.01865270920097828,0.0209583081305027,0.020255940034985542],"min":[-0.01865270920097828,-0.0209583081305027,-0.020255940034985542],"type":"VEC3"},{"bufferView":0,"byteOffset":4704,"componentType":5123,"count":1320,"max":[272],"min":[0],"type":"SCALAR"},{"bufferView":1,"byteOffset":11688,"componentType":5126,"count":273,"max":[1,1,1],"min":[-1,-1,-1],"type":"VEC3"},{"bufferView":1,"byteOffset":14964,"componentType":5126,"count":273,"max":[0.01855051890015602,0.1932757943868637,0.018550528213381767],"min":[-0.01855051890015602,-0.08256970345973969,-0.018550528213381767],"type":"VEC3"}],"asset":{"generator":"COLLADA2GLTF","version":"2.0"},"bufferViews":[{"buffer":0,"byteLength":7344,"byteOffset":0,"target":34963},{"buffer":0,"byteLength":18240,"byteOffset":7344,"byteStride":12,"target":34962}],"buffers":[{"name":"output","byteLength":25584,"uri":"data:application/octet-stream;base64,"}],"materials":[{"emissiveFactor":[0,0,0],"name":"lambert3","pbrMetallicRoughness":{"baseColorFactor":[0,0,0,1],"metallicFactor":0,"roughnessFactor":1},"alphaMode":"OPAQUE","doubleSided":false},{"emissiveFactor":[0,0,0],"name":"lambert3","pbrMetallicRoughness":{"baseColorFactor":[0,0,0,1],"metallicFactor":0,"roughnessFactor":1},"alphaMode":"OPAQUE","doubleSided":false},{"emissiveFactor":[0,0,0],"name":"lambert4","pbrMetallicRoughness":{"baseColorFactor":[0.800000011920929,0.7675199508666992,0.4862399995326996,1],"metallicFactor":0,"roughnessFactor":1},"alphaMode":"OPAQUE","doubleSided":false},{"emissiveFactor":[0,0,0],"name":"lambert3","pbrMetallicRoughness":{"baseColorFactor":[0,0,0,1],"metallicFactor":0,"roughnessFactor":1},"alphaMode":"OPAQUE","doubleSided":false}],"meshes":[{"name":"pSphere1Mesh","primitives":[{"attributes":{"NORMAL":1,"POSITION":2},"indices":0,"material":0,"mode":4}]},{"name":"pCube2Mesh","primitives":[{"attributes":{"NORMAL":4,"POSITION":5},"indices":3,"material":1,"mode":4}]},{"name":"pCube1Mesh","primitives":[{"attributes":{"NORMAL":7,"POSITION":8},"indices":6,"material":2,"mode":4}]},{"name":"pCylinder1Mesh","primitives":[{"attributes":{"NORMAL":10,"POSITION":11},"indices":9,"material":3,"mode":4}]}],"nodes":[{"children":[1],"name":"Y_UP"},{"children":[6,2],"name":"group1"},{"children":[5,4,3],"matrix":[1,0,0,0,0,1,0,0,0,0,1,0,0,0.1094316616654396,0,1],"name":"group2"},{"matrix":[1,0,0,0,0,1,0,0,0,0,1,0,0,0.2067055106163025,0,1],"mesh":0,"name":"pSphere1"},{"matrix":[1,0,0,0,0,0.8256880044937134,0,0,0,0,1,0,0,0.21738477051258087,0,1],"mesh":1,"name":"pCube2"},{"matrix":[1,0,0,0,0,0.8256880044937134,0,0,0,0,1,0,0,0.17699919641017914,0,1],"mesh":2,"name":"pCube1"},{"matrix":[1,0,0,0,0,1,0,0,0,0,1,0,0,0.08256970345973969,0,1],"mesh":3,"name":"pCylinder1"}],"scene":0,"scenes":[{"nodes":[0]}]}
