{"accessors":[{"bufferView":0,"byteOffset":0,"componentType":5123,"count":1440,"max":[293],"min":[0],"type":"SCALAR"},{"bufferView":1,"byteOffset":0,"componentType":5126,"count":294,"max":[1,1,1],"min":[-1,-1,-1],"type":"VEC3"},{"bufferView":1,"byteOffset":3528,"componentType":5126,"count":294,"max":[0.009203699417412281,0.05504429712891579,0.009203710593283176],"min":[-0.009203710593283176,-0.05504429712891579,-0.009203710593283176],"type":"VEC3"},{"bufferView":0,"byteOffset":2880,"componentType":5123,"count":960,"max":[209],"min":[0],"type":"SCALAR"},{"bufferView":1,"byteOffset":7056,"componentType":5126,"count":210,"max":[0.9999799728393555,1,0.9999799728393555],"min":[-0.9999799728393555,-1,-0.9999799728393555],"type":"VEC3"},{"bufferView":1,"byteOffset":9576,"componentType":5126,"count":210,"max":[0.003543049795553088,0.05504429712891579,0.0038094697520136833],"min":[-0.005513269919902086,-0.05504429712891579,-0.003543049795553088],"type":"VEC3"},{"bufferView":0,"byteOffset":4800,"componentType":5123,"count":1440,"max":[293],"min":[0],"type":"SCALAR"},{"bufferView":1,"byteOffset":12096,"componentType":5126,"count":294,"max":[1,1,1],"min":[-1,-1,-1],"type":"VEC3"},{"bufferView":1,"byteOffset":15624,"componentType":5126,"count":294,"max":[0.049187250435352325,0.04599199816584587,0.049187250435352325],"min":[-0.04918725788593292,-0.04599199816584587,-0.04918725788593292],"type":"VEC3"},{"bufferView":0,"byteOffset":7680,"componentType":5123,"count":960,"max":[209],"min":[0],"type":"SCALAR"},{"bufferView":1,"byteOffset":19152,"componentType":5126,"count":210,"max":[1,1,1],"min":[-1,-1,-1],"type":"VEC3"},{"bufferView":1,"byteOffset":21672,"componentType":5126,"count":210,"max":[0.009203699417412281,0.05504429712891579,0.009203710593283176],"min":[-0.009203710593283176,-0.05504429712891579,-0.009203710593283176],"type":"VEC3"},{"bufferView":0,"byteOffset":9600,"componentType":5123,"count":960,"max":[209],"min":[0],"type":"SCALAR"},{"bufferView":1,"byteOffset":24192,"componentType":5126,"count":210,"max":[1,1,1],"min":[-1,-1,-1],"type":"VEC3"},{"bufferView":1,"byteOffset":26712,"componentType":5126,"count":210,"max":[0.009203699417412281,0.05504429712891579,0.009203710593283176],"min":[-0.009203710593283176,-0.05504429712891579,-0.009203710593283176],"type":"VEC3"},{"bufferView":0,"byteOffset":11520,"componentType":5123,"count":960,"max":[209],"min":[0],"type":"SCALAR"},{"bufferView":1,"byteOffset":29232,"componentType":5126,"count":210,"max":[0.9999799728393555,1,0.9999799728393555],"min":[-0.9999799728393555,-1,-0.9999799728393555],"type":"VEC3"},{"bufferView":1,"byteOffset":31752,"componentType":5126,"count":210,"max":[0.003543049795553088,0.05504429712891579,0.0038094697520136833],"min":[-0.005513269919902086,-0.05504429712891579,-0.003543049795553088],"type":"VEC3"},{"bufferView":0,"byteOffset":13440,"componentType":5123,"count":960,"max":[209],"min":[0],"type":"SCALAR"},{"bufferView":1,"byteOffset":34272,"componentType":5126,"count":210,"max":[1,1,1],"min":[-1,-1,-1],"type":"VEC3"},{"bufferView":1,"byteOffset":36792,"componentType":5126,"count":210,"max":[0.009203699417412281,0.05504429712891579,0.009203710593283176],"min":[-0.009203710593283176,-0.05504429712891579,-0.009203710593283176],"type":"VEC3"},{"bufferView":0,"byteOffset":15360,"componentType":5123,"count":1440,"max":[293],"min":[0],"type":"SCALAR"},{"bufferView":1,"byteOffset":39312,"componentType":5126,"count":294,"max":[1,1,1],"min":[-1,-1,-1],"type":"VEC3"},{"bufferView":1,"byteOffset":42840,"componentType":5126,"count":294,"max":[0.009203699417412281,0.05504429712891579,0.013183120638132095],"min":[-0.011407090350985527,-0.05504429712891579,-0.009203710593283176],"type":"VEC3"},{"bufferView":0,"byteOffset":18240,"componentType":5123,"count":960,"max":[209],"min":[0],"type":"SCALAR"},{"bufferView":1,"byteOffset":46368,"componentType":5126,"count":210,"max":[0.9999799728393555,1,0.9999799728393555],"min":[-0.9999799728393555,-1,-0.9999799728393555],"type":"VEC3"},{"bufferView":1,"byteOffset":48888,"componentType":5126,"count":210,"max":[0.003543049795553088,0.05504429712891579,0.012417859397828579],"min":[-0.006950689945369959,-0.05504429712891579,-0.003543049795553088],"type":"VEC3"},{"bufferView":0,"byteOffset":20160,"componentType":5123,"count":960,"max":[209],"min":[0],"type":"SCALAR"},{"bufferView":1,"byteOffset":51408,"componentType":5126,"count":210,"max":[0.9999799728393555,1,0.9999799728393555],"min":[-0.9999799728393555,-1,-0.9999799728393555],"type":"VEC3"},{"bufferView":1,"byteOffset":53928,"componentType":5126,"count":210,"max":[0.003543049795553088,0.05504429712891579,0.012417859397828579],"min":[-0.006950689945369959,-0.05504429712891579,-0.003543049795553088],"type":"VEC3"},{"bufferView":0,"byteOffset":22080,"componentType":5123,"count":960,"max":[209],"min":[0],"type":"SCALAR"},{"bufferView":1,"byteOffset":56448,"componentType":5126,"count":210,"max":[0.9999799728393555,1,0.9999799728393555],"min":[-0.9999799728393555,-1,-0.9999799728393555],"type":"VEC3"},{"bufferView":1,"byteOffset":58968,"componentType":5126,"count":210,"max":[0.003543049795553088,0.05504429712891579,0.012417859397828579],"min":[-0.006950689945369959,-0.05504429712891579,-0.003543049795553088],"type":"VEC3"},{"bufferView":0,"byteOffset":24000,"componentType":5123,"count":1560,"max":[314],"min":[0],"type":"SCALAR"},{"bufferView":1,"byteOffset":61488,"componentType":5126,"count":315,"max":[0.9990870356559753,1,0.9990879893302917],"min":[-0.9990879893302917,-1,-0.9990879893302917],"type":"VEC3"},{"bufferView":1,"byteOffset":65268,"componentType":5126,"count":315,"max":[0.02098572999238968,0.05504429712891579,0.013846879824995995],"min":[-0.01852738857269287,-0.05504429712891579,-0.025292279198765755],"type":"VEC3"},{"bufferView":0,"byteOffset":27120,"componentType":5123,"count":960,"max":[209],"min":[0],"type":"SCALAR"},{"bufferView":1,"byteOffset":69048,"componentType":5126,"count":210,"max":[0.9999799728393555,1,0.9999799728393555],"min":[-0.9999799728393555,-1,-0.9999799728393555],"type":"VEC3"},{"bufferView":1,"byteOffset":71568,"componentType":5126,"count":210,"max":[0.003543049795553088,0.05504429712891579,0.012417859397828579],"min":[-0.006950689945369959,-0.05504429712891579,-0.003543049795553088],"type":"VEC3"},{"bufferView":0,"byteOffset":29040,"componentType":5123,"count":960,"max":[209],"min":[0],"type":"SCALAR"},{"bufferView":1,"byteOffset":74088,"componentType":5126,"count":210,"max":[0.9999799728393555,1,0.9999799728393555],"min":[-0.9999799728393555,-1,-0.9999799728393555],"type":"VEC3"},{"bufferView":1,"byteOffset":76608,"componentType":5126,"count":210,"max":[0.003543049795553088,0.05504429712891579,0.012417859397828579],"min":[-0.006950689945369959,-0.05504429712891579,-0.003543049795553088],"type":"VEC3"}],"asset":{"generator":"COLLADA2GLTF","version":"2.0"},"bufferViews":[{"buffer":0,"byteLength":30960,"byteOffset":0,"target":34963},{"buffer":0,"byteLength":79128,"byteOffset":30960,"byteStride":12,"target":34962}],"buffers":[{"name":"output","byteLength":110088,"uri":"data:application/octet-stream;base64,"}],"materials":[{"emissiveFactor":[0,0,0],"name":"lambert3","pbrMetallicRoughness":{"baseColorFactor":[0.041839998215436935,0.020879998803138733,0.013919999822974205,1],"metallicFactor":0,"roughnessFactor":1},"alphaMode":"OPAQUE","doubleSided":false},{"emissiveFactor":[0,0,0],"name":"lambert3","pbrMetallicRoughness":{"baseColorFactor":[0.041839998215436935,0.020879998803138733,0.013919999822974205,1],"metallicFactor":0,"roughnessFactor":1},"alphaMode":"OPAQUE","doubleSided":false},{"emissiveFactor":[0,0,0],"name":"lambert3","pbrMetallicRoughness":{"baseColorFactor":[0.041839998215436935,0.020879998803138733,0.013919999822974205,1],"metallicFactor":0,"roughnessFactor":1},"alphaMode":"OPAQUE","doubleSided":false},{"emissiveFactor":[0,0,0],"name":"lambert3","pbrMetallicRoughness":{"baseColorFactor":[0.041839998215436935,0.020879998803138733,0.013919999822974205,1],"metallicFactor":0,"roughnessFactor":1},"alphaMode":"OPAQUE","doubleSided":false},{"emissiveFactor":[0,0,0],"name":"lambert3","pbrMetallicRoughness":{"baseColorFactor":[0.041839998215436935,0.020879998803138733,0.013919999822974205,1],"metallicFactor":0,"roughnessFactor":1},"alphaMode":"OPAQUE","doubleSided":false},{"emissiveFactor":[0,0,0],"name":"lambert3","pbrMetallicRoughness":{"baseColorFactor":[0.041839998215436935,0.020879998803138733,0.013919999822974205,1],"metallicFactor":0,"roughnessFactor":1},"alphaMode":"OPAQUE","doubleSided":false},{"emissiveFactor":[0,0,0],"name":"lambert3","pbrMetallicRoughness":{"baseColorFactor":[0.041839998215436935,0.020879998803138733,0.013919999822974205,1],"metallicFactor":0,"roughnessFactor":1},"alphaMode":"OPAQUE","doubleSided":false},{"emissiveFactor":[0,0,0],"name":"lambert3","pbrMetallicRoughness":{"baseColorFactor":[0.041839998215436935,0.020879998803138733,0.013919999822974205,1],"metallicFactor":0,"roughnessFactor":1},"alphaMode":"OPAQUE","doubleSided":false},{"emissiveFactor":[0,0,0],"name":"lambert3","pbrMetallicRoughness":{"baseColorFactor":[0.041839998215436935,0.020879998803138733,0.013919999822974205,1],"metallicFactor":0,"roughnessFactor":1},"alphaMode":"OPAQUE","doubleSided":false},{"emissiveFactor":[0,0,0],"name":"lambert3","pbrMetallicRoughness":{"baseColorFactor":[0.041839998215436935,0.020879998803138733,0.013919999822974205,1],"metallicFactor":0,"roughnessFactor":1},"alphaMode":"OPAQUE","doubleSided":false},{"emissiveFactor":[0,0,0],"name":"lambert3","pbrMetallicRoughness":{"baseColorFactor":[0.041839998215436935,0.020879998803138733,0.013919999822974205,1],"metallicFactor":0,"roughnessFactor":1},"alphaMode":"OPAQUE","doubleSided":false},{"emissiveFactor":[0,0,0],"name":"lambert3","pbrMetallicRoughness":{"baseColorFactor":[0.041839998215436935,0.020879998803138733,0.013919999822974205,1],"metallicFactor":0,"roughnessFactor":1},"alphaMode":"OPAQUE","doubleSided":false},{"emissiveFactor":[0,0,0],"name":"lambert3","pbrMetallicRoughness":{"baseColorFactor":[0.041839998215436935,0.020879998803138733,0.013919999822974205,1],"metallicFactor":0,"roughnessFactor":1},"alphaMode":"OPAQUE","doubleSided":false},{"emissiveFactor":[0,0,0],"name":"lambert3","pbrMetallicRoughness":{"baseColorFactor":[0.041839998215436935,0.020879998803138733,0.013919999822974205,1],"metallicFactor":0,"roughnessFactor":1},"alphaMode":"OPAQUE","doubleSided":false}],"meshes":[{"name":"pCylinder2Mesh","primitives":[{"attributes":{"NORMAL":1,"POSITION":2},"indices":0,"material":0,"mode":4}]},{"name":"pCylinder14Mesh","primitives":[{"attributes":{"NORMAL":4,"POSITION":5},"indices":3,"material":1,"mode":4}]},{"name":"pCylinder1Mesh","primitives":[{"attributes":{"NORMAL":7,"POSITION":8},"indices":6,"material":2,"mode":4}]},{"name":"pCylinder13Mesh","primitives":[{"attributes":{"NORMAL":10,"POSITION":11},"indices":9,"material":3,"mode":4}]},{"name":"pCylinder4Mesh","primitives":[{"attributes":{"NORMAL":13,"POSITION":14},"indices":12,"material":4,"mode":4}]},{"name":"pCylinder5Mesh","primitives":[{"attributes":{"NORMAL":16,"POSITION":17},"indices":15,"material":5,"mode":4}]},{"name":"pCylinder3Mesh","primitives":[{"attributes":{"NORMAL":19,"POSITION":20},"indices":18,"material":6,"mode":4}]},{"name":"pCylinder6Mesh","primitives":[{"attributes":{"NORMAL":22,"POSITION":23},"indices":21,"material":7,"mode":4}]},{"name":"pCylinder7Mesh","primitives":[{"attributes":{"NORMAL":25,"POSITION":26},"indices":24,"material":8,"mode":4}]},{"name":"pCylinder8Mesh","primitives":[{"attributes":{"NORMAL":28,"POSITION":29},"indices":27,"material":9,"mode":4}]},{"name":"pCylinder9Mesh","primitives":[{"attributes":{"NORMAL":31,"POSITION":32},"indices":30,"material":10,"mode":4}]},{"name":"pCylinder10Mesh","primitives":[{"attributes":{"NORMAL":34,"POSITION":35},"indices":33,"material":11,"mode":4}]},{"name":"pCylinder12Mesh","primitives":[{"attributes":{"NORMAL":37,"POSITION":38},"indices":36,"material":12,"mode":4}]},{"name":"pCylinder11Mesh","primitives":[{"attributes":{"NORMAL":40,"POSITION":41},"indices":39,"material":13,"mode":4}]}],"nodes":[{"children":[1],"name":"Y_UP"},{"children":[2],"matrix":[1,0,0,0,0,1,0,0,0,0,1,0,0,0.12999999523162842,0,1],"name":"group1"},{"children":[16,15,14,13,12,11,10,9,8,7,6,5,4,3],"name":"group5"},{"matrix":[0.7071070075035095,-0.7071070075035095,0,0,0.5,0.5,-0.7071070075035095,0,0.5,0.5,0.7071070075035095,0,0.032447438687086105,0.35585445165634155,-0.04807542636990547,1],"mesh":0,"name":"pCylinder2"},{"matrix":[0.5468689799308777,0.843271017074585,0.33647701144218445,0,-0.9050779938697815,0.47526997327804565,0.27989301085472107,0,0.07180699706077576,-0.43174201250076294,0.9653139710426331,0,-0.09650445729494095,0.3958413898944855,0.018361089751124382,1],"mesh":1,"name":"pCylinder14"},{"matrix":[1,0,0,0,0,5,0,0,0,0,1,0,0.00018689998250920326,0.09999999403953552,-0.0009451399673707783,1],"mesh":2,"name":"pCylinder1"},{"matrix":[-0.8054909706115723,-0.5905299782752991,-0.049591999500989914,0,-0.2949880063533783,0.40348899364471436,-0.013353000394999981,0,0.05579099804162979,0.007745999842882156,-0.998412013053894,0,-0.031563159078359604,0.349087655544281,0.00366232986561954,1],"mesh":3,"name":"pCylinder13"},{"matrix":[1.2647709846496582,-0.12649300694465637,-0.06311299651861191,0,0.06246199831366539,0.6330220103263855,-0.016993999481201172,0,-0.06616400182247162,-0.02758299931883812,-1.2706259489059448,0,0.004655059892684221,0.35964086651802063,-0.004384869709610939,1],"mesh":4,"name":"pCylinder4"},{"matrix":[-1.1446999311447144,0.5707579851150513,0.42821601033210754,0,0.6848030090332031,1.106181025505066,0.3562049865722656,0,0.2004459947347641,-0.5196849703788757,1.228503942489624,0,0.045610461384058,0.4528803825378418,0.014321459457278252,1],"mesh":5,"name":"pCylinder5"},{"matrix":[0.7071070075035095,-0.7071070075035095,0,0,0.6030970215797424,0.6030970215797424,0.5220620036125183,0,-0.3691540062427521,-0.3691540062427521,0.8529080152511597,0,0.04777161031961441,0.3575458526611328,0.040405597537755966,1],"mesh":6,"name":"pCylinder3"},{"matrix":[0.8803489804267883,0.12228400260210037,-0.45829200744628906,0,-0.6685090065002441,1.354841947555542,-0.9226559996604919,0,0.2870140075683594,0.6319050192832947,0.7199440002441406,0,-0.04302561655640602,0.389834463596344,-0.05680307745933533,1],"mesh":7,"name":"pCylinder6"},{"matrix":[0.35322698950767517,1.0719809532165527,-0.7386200428009033,0,-0.015588999725878239,0.7687550187110901,1.1082619428634644,0,-1.3017139434814453,0.28168198466300964,-0.21370099484920502,0,0.006726899649947882,0.4313049614429474,0.05507785826921463,1],"mesh":8,"name":"pCylinder7"},{"matrix":[0.0008619999862276018,-0.47454801201820374,-0.6755419969558716,0,0.7192350029945374,0.33206701278686523,-0.23234999179840088,0,-0.40528199076652527,0.5882939696311951,-0.4137760102748871,0,0.0975169762969017,0.40116679668426514,-0.09926971048116684,1],"mesh":9,"name":"pCylinder8"},{"matrix":[0.0008619999862276018,-0.47454801201820374,-0.6755419969558716,0,0.7595869898796082,-0.26416900753974915,0.18653899431228638,0,0.32339099049568176,0.621749997138977,-0.43634799122810364,0,0.12050455063581467,0.3763279616832733,0.07830014824867249,1],"mesh":10,"name":"pCylinder9"},{"matrix":[0.8803489804267883,0.12228400260210037,-0.45829200744628906,0,-0.27424100041389465,2.4783260822296143,0.13447999954223633,0,0.4614369869232178,0.002920999890193343,0.8871679902076721,0,-0.020661307498812675,0.44766855239868164,0.00158884993288666,1],"mesh":11,"name":"pCylinder10"},{"matrix":[0.8452609777450562,0.45340999960899353,-0.14662900567054749,0,-0.06377099454402924,-0.18825799226760864,-0.949757993221283,0,0.472243994474411,-0.836974024772644,0.1341940015554428,0,-0.037475381046533585,0.35501620173454285,-0.08546219021081924,1],"mesh":12,"name":"pCylinder12"},{"matrix":[1.1750129461288452,0.6302940249443054,-0.2038310021162033,0,-0.6316310167312622,0.9409289956092834,-0.7315509915351868,0,0.19964900612831116,-0.7327039837837219,-1.1147910356521606,0,-0.05378996580839157,0.4755551517009735,-0.040245309472084045,1],"mesh":13,"name":"pCylinder11"}],"scene":0,"scenes":[{"nodes":[0]}]}
