{"accessors":[{"bufferView":0,"byteOffset":0,"componentType":5123,"count":240,"max":[83],"min":[0],"type":"SCALAR"},{"bufferView":1,"byteOffset":0,"componentType":5126,"count":84,"max":[1,1,1],"min":[-1,-1,-1],"type":"VEC3"},{"bufferView":1,"byteOffset":1008,"componentType":5126,"count":84,"max":[0.0015497399726882577,0.022232068702578545,0.0015497399726882577],"min":[-0.0015497399726882577,-0.022232068702578545,-0.0015497499844059348],"type":"VEC3"},{"bufferView":0,"byteOffset":480,"componentType":5123,"count":354,"max":[131],"min":[0],"type":"SCALAR"},{"bufferView":1,"byteOffset":2016,"componentType":5126,"count":132,"max":[0.8640210032463074,0.9958959817886353,0.9976850152015686],"min":[-0.8640210032463074,-1,-0.9976850152015686],"type":"VEC3"},{"bufferView":1,"byteOffset":3600,"componentType":5126,"count":132,"max":[0.02892935834825039,0.024141348898410797,0.027730340138077736],"min":[-0.019289368763566017,0.0004063299857079983,-0.014028320088982582],"type":"VEC3"}],"asset":{"generator":"COLLADA2GLTF","version":"2.0"},"bufferViews":[{"buffer":0,"byteLength":1188,"byteOffset":0,"target":34963},{"buffer":0,"byteLength":5184,"byteOffset":1188,"byteStride":12,"target":34962}],"buffers":[{"name":"output","byteLength":6372,"uri":"data:application/octet-stream;base64,"}],"materials":[{"emissiveFactor":[0,0,0],"name":"lambert1","pbrMetallicRoughness":{"baseColorFactor":[0.4000000059604645,0.4000000059604645,0.4000000059604645,1],"metallicFactor":0,"roughnessFactor":1},"alphaMode":"OPAQUE","doubleSided":false},{"emissiveFactor":[0,0,0],"name":"lambert2","pbrMetallicRoughness":{"baseColorFactor":[0.800000011920929,0.6322399973869324,0.09408000111579895,1],"metallicFactor":0,"roughnessFactor":1},"alphaMode":"OPAQUE","doubleSided":false}],"meshes":[{"name":"pCylinder1Mesh","primitives":[{"attributes":{"NORMAL":1,"POSITION":2},"indices":0,"material":0,"mode":4}]},{"name":"pSphere3Mesh","primitives":[{"attributes":{"NORMAL":4,"POSITION":5},"indices":3,"material":1,"mode":4}]}],"nodes":[{"children":[2,1],"name":"Y_UP"},{"matrix":[0.2785150110721588,0,0,0,0,1.0839329957962036,0,0,0,0,0.2785150110721588,0,0.005198800005018711,0.02367587946355343,0.00722992978990078,1],"mesh":0,"name":"pCylinder1"},{"matrix":[1,0,0,0,0,0.7096880078315735,0,0,0,0,1,0,0,0.03974992781877518,0,1],"mesh":1,"name":"pSphere3"}],"scene":0,"scenes":[{"nodes":[0]}]}
